# AST/ASF file generated using VICON BodyLanguage
# -----------------------------------------------
:version 1.10
:name VICON
:units
  mass 1.0
  length 0.45
  angle deg
:documentation
   .ast/.asf automatically generated from VICON data using
   VICON BodyBuilder and BodyLanguage model FoxedUp or BRILLIANT.MOD
:root
   order TX TY TZ RX RY RZ
   axis XYZ
   position 0 0 0  
   orientation 0 0 0 
:bonedata
  begin
     id 1 
     name lhipjoint
     direction 0.566809 -0.746272 0.349008 
     length 2.40479 
     axis 0 0 0  XYZ
  end
  begin
     id 2 
     name lfemur
     direction 0.34202 -0.939693 0  
     length 7.1578  
     axis 0 0 20  XYZ
    dof rx ry rz
    limits (-160.0 20.0)
           (-70.0 70.0)
           (-60.0 70.0)
  end
  begin
     id 3 
     name ltibia
     direction 0.34202 -0.939693 0   
     length 7.49137   
     axis 0 0 20   XYZ
    dof rx
    limits (-10.0 170.0)
  end
  begin
     id 4 
     name lfoot
     direction 0.0665746 -0.182912 0.980873   
     length 2.36784   
     axis -90 7.62852e-016 20   XYZ
    dof rx rz
    limits (-45.0 90.0)
           (-70.0 20.0)
  end
  begin
     id 5 
     name ltoes
     direction 1.53601e-011 -4.22058e-011 1   
     length 1.18966   
     axis -90 7.62852e-016 20   XYZ
    dof rx
    limits (-90.0 20.0)
  end
  begin
     id 6 
     name rhipjoint
     direction -0.550236 -0.756381 0.353735   
     length 2.37265  
     axis 0 0 0  XYZ 
  end
  begin
     id 7 
     name rfemur
     direction -0.34202 -0.939693 0   
     length 7.43386   
     axis 0 0 -20   XYZ
    dof rx ry rz
    limits (-160.0 20.0)
           (-70.0 70.0)
           (-70.0 60.0)
  end
  begin
     id 8 
     name rtibia
     direction -0.34202 -0.939693 0   
     length 7.50908   
     axis 0 0 -20   XYZ
    dof rx
    limits (-10.0 170.0)
 end
 begin
     id 9 
     name rfoot
     direction -0.0683029 -0.187661 0.979856   
     length 2.41173  
     axis -90 -7.62852e-016 -20   XYZ
    dof rx rz
    limits (-45.0 90.0)
           (-20.0 70.0)
  end
  begin
     id 10 
     name rtoes
     direction -1.53528e-011 -4.21968e-011 1   
     length 1.21082   
     axis -90 -7.62852e-016 -20   XYZ
    dof rx
    limits (-90.0 20.0)
  end
  begin
     id 11 
     name lowerback
     direction 0.013823 0.995423 -0.0945635   
     length 2.04495   
     axis 0 0 0   XYZ
    dof rx ry rz
    limits (-20.0 45.0)
           (-30.0 30.0)
           (-30.0 30.0)
  end
  begin
     id 12 
     name upperback
     direction 0.0276657 0.9994 -0.020853   
     length 2.05008   
     axis 0 0 0   XYZ
    dof rx ry rz
    limits (-20.0 45.0)
           (-30.0 30.0)
           (-30.0 30.0)
  end
  begin
     id 13 
     name thorax
     direction 0.019782 0.999531 0.0233827   
     length 2.06488   
     axis 0 0 0   XYZ
    dof rx ry rz
    limits (-20.0 45.0)
           (-30.0 30.0)
           (-30.0 30.0)
  end
  begin
     id 14 
     name lowerneck
     direction -0.0308541 0.994709 0.0979874   
     length 1.75553   
     axis 0 0 0   XYZ
    dof rx ry rz
    limits (-20.0 45.0)
           (-30.0 30.0)
           (-30.0 30.0)
  end
  begin
     id 15 
     name upperneck
     direction 0.0588398 0.995804 -0.0700903   
     length 1.76878   
     axis 0 0 0   XYZ
    dof rx ry rz
    limits (-20.0 45.0)
           (-30.0 30.0)
           (-30.0 30.0)
  end
  begin
     id 16
     name head
     direction 0.0209966 0.999159 -0.0352225  
     length 1.77193  
     axis 0 0 0   XYZ
    dof rx ry rz
    limits (-20.0 45.0)
           (-30.0 30.0)
           (-30.0 30.0)
  end
  begin
     id 17 
     name lclavicle
     direction 0.938182 0.335073 -0.0868338  
     length 3.58396  
     axis 0 0 0   XYZ
    dof ry rz
    limits (-20.0 10.0)
           (0.0 20.0)
  end
  begin
     id 18 
     name lhumerus
     direction 1 -4.48971e-011 -1.26313e-017   
     length 4.983   
     axis 180 -30 -90   XYZ
    dof rx ry rz
    limits (-60.0 90.0)
           (-90.0 90.0)
           (-90.0 90.0)
  end
  begin
     id 19
     name lradius
     direction 1 -4.48948e-011 -5.89033e-027   
     length 3.48356   
     axis 180 -30 -90   XYZ
    dof rx
    limits (-10.0 170.0)
  end
  begin
     id 20
     name lwrist
     direction 1 -4.48977e-011 -1.48983e-026   
     length 1.74178   
     axis 9.0955e-015 90 90   XYZ
    dof ry
    limits (-180.0 0.0)
 end
  begin
     id 21 
     name lhand
     direction 1 -4.49046e-011 -2.98066e-026   
     length 0.715259   
     axis 1.90115e-014 90 90   XYZ
    dof rx rz
    limits (-90.0 90.0)
           (-45.0 45.0)
  end
  begin
     id 22 
     name lfingers
     direction 1 -4.48907e-011 -5.95731e-026   
     length 0.576661   
     axis 3.80223e-014 90 90   XYZ
    dof rx
    limits (0.0 90.0)
  end
  begin
     id 23
     name lthumb
     direction 0.707107 -6.34963e-011 0.707107   
     length 0.827973   
     axis -90 45 -3.84942e-014   XYZ
    dof rx rz
    limits (-45.0 45.0)
           (-45.0 45.0)
  end
  begin
     id 24 
     name rclavicle
     direction -0.909637 0.398485 -0.11735   
     length 3.44819  
     axis 0 0 0   XYZ 
    dof ry rz
    limits (-10.0 20.0)
           (-20.0 0.0)
  end
  begin
     id 25 
     name rhumerus
     direction -1 -4.48978e-011 -1.09333e-027  
     length 5.2419   
     axis 180 30 90   XYZ
    dof rx ry rz
    limits (-90.0 60.0)
           (-90.0 90.0)
           (-90.0 90.0)
  end
  begin
     id 26 
     name rradius
     direction -1 -4.48953e-011 -7.61841e-027   
     length 3.44417   
     axis 180 30 90   XYZ
    dof rx
    limits (-10.0 170.0)
  end
  begin
     id 27 
     name rwrist
     direction -1 -4.48977e-011 -1.48983e-026   
     length 1.72209   
     axis 9.0955e-015 -90 -90   XYZ
    dof ry
    limits (-180.0 0.0)
  end
  begin
     id 28
     name rhand
     direction -1 -4.49027e-011 -2.98038e-026   
     length 0.622529   
     axis 1.90115e-014 -90 -90   XYZ
    dof rx rz
    limits (-90.0 90.0)
           (-45.0 45.0)
  end
  begin
     id 29
     name rfingers
     direction -1 -4.48838e-011 -5.95531e-026   
     length 0.501899   
     axis 3.80223e-014 -90 -90   XYZ
    dof rx
    limits (0.0 90.0)
  end
  begin
     id 30
     name rthumb
     direction -0.707107 -6.34937e-011 0.707107   
     length 0.720629   
     axis -90 -45 3.84942e-014   XYZ
    dof rx rz
    limits (-45.0 45.0)
           (-45.0 45.0)
  end
:hierarchy
  begin
    root lhipjoint rhipjoint lowerback
    lhipjoint lfemur
    lfemur ltibia
    ltibia lfoot
    lfoot ltoes
    rhipjoint rfemur
    rfemur rtibia
    rtibia rfoot
    rfoot rtoes
    lowerback upperback
    upperback thorax
    thorax lowerneck lclavicle rclavicle
    lowerneck upperneck
    upperneck head
    lclavicle lhumerus
    lhumerus lradius
    lradius lwrist
    lwrist lhand lthumb
    lhand lfingers
    rclavicle rhumerus
    rhumerus rradius
    rradius rwrist
    rwrist rhand rthumb
    rhand rfingers
  end

#!OML:ASF H:\Terrain\Patient Classification 1\PLAYGROUND\JustinFriday\JustinFriday.ASF
:FULLY-SPECIFIED
:DEGREES
151
root -7.54848 17.603 15.5954 187.573 -81.4638 -183.887
lowerback 10.5049 -0.661268 -6.58114
upperback 4.03794 -1.77252 -1.99316
thorax -1.53951 -1.00225 1.83271
lowerneck 4.50284 -11.6244 -16.799
upperneck 14.3695 -17.9771 12.4166
head 6.26618 -9.29166 5.5323
rclavicle -2.66371e-014 -1.19271e-014
rhumerus -37.1862 0.437197 -83.9033
rradius 39.828
rwrist -7.50519
rhand -13.0274 -21.5225
rfingers 7.12502
rthumb 13.0668 -51.0932
lclavicle -2.66371e-014 -1.19271e-014
lhumerus -26.7484 13.7783 66.9968
lradius 35.7058
lwrist 7.18897
lhand -23.3376 -3.26304
lfingers 7.12502
lthumb 3.11709 26.6939
rfemur -33.1918 -9.91692 25.3773
rtibia 43.9474
rfoot -8.92586 -10.8198
rtoes 6.27297
lfemur -7.75786 11.5241 -16.705
ltibia 29.7865
lfoot -18.4894 -7.02216
ltoes -1.76723
152
root -7.67099 17.5842 15.5804 188.674 -80.9407 -184.825
lowerback 10.3461 -0.703574 -6.8688
upperback 4.02658 -1.84432 -2.00476
thorax -1.44847 -1.04284 1.98478
lowerneck 4.19224 -11.7366 -14.7133
upperneck 14.0826 -17.7607 10.7633
head 5.85404 -9.13424 4.72791
rclavicle 1.51076e-014 -7.95139e-016
rhumerus -37.5817 -1.18561 -83.1004
rradius 40.1881
rwrist -6.38991
rhand -12.113 -21.5915
rfingers 7.12502
rthumb 13.9481 -51.1037
lclavicle 1.51076e-014 -7.95139e-016
lhumerus -26.5134 13.5647 66.7313
lradius 36.221
lwrist 8.03656
lhand -23.6131 -3.00829
lfingers 7.12502
lthumb 2.85097 26.9524
rfemur -33.4586 -9.7744 25.7214
rtibia 41.5202
rfoot -8.1271 -11.5188
rtoes 4.02735
lfemur -7.23487 11.3993 -16.9589
ltibia 29.4953
lfoot -18.8149 -6.46275
ltoes -1.19111
153
root -7.79213 17.5759 15.5662 190.016 -80.6397 -185.85
lowerback 10.1561 -0.801688 -7.09172
upperback 3.91943 -1.97753 -1.97835
thorax -1.43509 -1.10642 2.14712
lowerneck 4.21144 -11.7935 -13.4593
upperneck 13.6269 -17.6017 9.65127
head 5.47663 -9.03734 4.24004
rclavicle 9.93923e-015 2.70347e-014
rhumerus -37.5508 -2.04173 -82.4006
rradius 40.1036
rwrist -5.95861
rhand -12.3735 -21.6584
rfingers 7.12502
rthumb 13.6971 -51.1876
lclavicle 9.93923e-015 2.70347e-014
lhumerus -26.2986 13.4324 66.5277
lradius 36.5782
lwrist 8.747
lhand -24.009 -3.1178
lfingers 7.12502
lthumb 2.46866 26.8477
rfemur -33.8625 -9.72663 26.0883
rtibia 39.0801
rfoot -7.36807 -12.3893
rtoes 4.08528
lfemur -6.87889 11.1305 -17.2386
ltibia 29.0813
lfoot -18.8581 -6.23802
ltoes 0.230564
154
root -7.92342 17.5791 15.5491 190.316 -80.6857 -185.862
lowerback 10.0071 -0.989422 -6.97899
upperback 3.7815 -2.19851 -1.94381
thorax -1.48096 -1.20702 2.14147
lowerneck 4.34545 -11.7259 -13.6305
upperneck 13.5567 -17.5384 9.74975
head 5.44884 -9.01619 4.31076
rclavicle -3.89618e-014 1.11319e-014
rhumerus -37.5523 -1.67767 -82.2152
rradius 39.782
rwrist -7.21172
rhand -14.5805 -21.2179
rfingers 7.12502
rthumb 11.5694 -50.8786
lclavicle -3.89618e-014 1.11319e-014
lhumerus -26.2043 13.5192 66.1724
lradius 37.0249
lwrist 8.78695
lhand -24.1939 -3.26711
lfingers 7.12502
lthumb 2.29008 26.7003
rfemur -34.1417 -9.7386 26.5584
rtibia 36.7228
rfoot -7.17557 -13.56
rtoes 5.27507
lfemur -6.4347 11.1328 -17.21
ltibia 28.5675
lfoot -18.7017 -6.46491
ltoes 0.723263
155
root -8.05436 17.5748 15.519 191.161 -80.3703 -186.788
lowerback 10.1394 -0.9863 -7.26886
upperback 3.7352 -2.2377 -1.93158
thorax -1.58554 -1.22436 2.32462
lowerneck 4.15387 -11.8401 -15.1073
upperneck 14.1894 -17.932 10.8158
head 5.9592 -9.23348 4.77462
rclavicle -4.6118e-014 -4.69132e-014
rhumerus -37.7563 -1.84012 -81.851
rradius 39.7021
rwrist -8.14651
rhand -14.9664 -20.9216
rfingers 7.12502
rthumb 11.1972 -50.6028
lclavicle -4.6118e-014 -4.69132e-014
lhumerus -26.1477 13.5532 65.8734
lradius 37.5717
lwrist 8.87494
lhand -24.0236 -3.3336
lfingers 7.12502
lthumb 2.45452 26.632
rfemur -34.0464 -9.46036 26.7252
rtibia 34.5564
rfoot -7.57706 -14.7843
rtoes 6.71702
lfemur -5.42806 11.6309 -17.2456
ltibia 27.9009
lfoot -18.5784 -6.90748
ltoes 1.4975
